<?xml version="1.0" encoding="utf-8"?>
<!-- Generator: Adobe Illustrator 27.5.0, SVG Export Plug-In . SVG Version: 6.00 Build 0)  -->
<svg version="1.1" xmlns="http://www.w3.org/2000/svg" xmlns:xlink="http://www.w3.org/1999/xlink" x="0px" y="0px"
	 viewBox="0 0 500 500" style="enable-background:new 0 0 500 500;" xml:space="preserve">
<g id="BACKGROUND">
	<g>
		<rect style="fill:#21384D;" width="500" height="500"/>
		<g>
			<defs>
				<rect id="SVGID_1_" width="500" height="500"/>
			</defs>
			<clipPath id="SVGID_00000053520013131939069220000015607813567552949174_">
				<use xlink:href="#SVGID_1_"  style="overflow:visible;"/>
			</clipPath>
			<g style="clip-path:url(#SVGID_00000053520013131939069220000015607813567552949174_);">
				
					<path style="fill:#1B2E40;stroke:#1B2E40;stroke-width:3;stroke-linecap:round;stroke-linejoin:round;stroke-miterlimit:10;" d="
					M360.306,510.746h-92.099c-3.17,0-5.741-2.57-5.741-5.741v-92.099c0-3.17,2.57-5.741,5.741-5.741h92.099
					c3.17,0,5.741,2.57,5.741,5.741v92.099C366.047,508.176,363.476,510.746,360.306,510.746z"/>
				<path style="fill:none;stroke:#1B2E40;stroke-width:3;stroke-linecap:round;stroke-linejoin:round;stroke-miterlimit:10;" d="
					M40.804,492.576h-91.857c-3.237,0-5.862-2.624-5.862-5.862v-96.271c0-3.237,2.624-5.862,5.862-5.862h91.857
					c3.237,0,5.862,2.624,5.862,5.862v96.271C46.666,489.952,44.041,492.576,40.804,492.576z"/>
				<path style="fill:none;stroke:#1B2E40;stroke-width:3;stroke-linecap:round;stroke-linejoin:round;stroke-miterlimit:10;" d="
					M536.058,164.92h-92.099c-3.171,0-5.741-2.57-5.741-5.74V67.081c0-3.171,2.57-5.741,5.741-5.741h92.099
					c3.17,0,5.74,2.57,5.74,5.741v92.099C541.798,162.35,539.228,164.92,536.058,164.92z"/>
				
					<path style="fill:#1B2E40;stroke:#1B2E40;stroke-width:3;stroke-linecap:round;stroke-linejoin:round;stroke-miterlimit:10;" d="
					M471.693,510.746h-40.121c-2.517,0-4.557-2.04-4.557-4.557V377.981c0-2.517,2.04-4.557,4.557-4.557h40.121
					c2.517,0,4.557,2.04,4.557,4.557v128.208C476.25,508.706,474.21,510.746,471.693,510.746z"/>
				<path style="fill:none;stroke:#1B2E40;stroke-width:3;stroke-linecap:round;stroke-linejoin:round;stroke-miterlimit:10;" d="
					M476.133,313.79h-35.547c-1.307,0-2.367-1.06-2.367-2.367v-40.556c0-1.307,1.06-2.367,2.367-2.367h35.547
					c1.307,0,2.367,1.06,2.367,2.367v40.556C478.5,312.731,477.44,313.79,476.133,313.79z"/>
				<path style="fill:none;stroke:#1B2E40;stroke-width:3;stroke-linecap:round;stroke-linejoin:round;stroke-miterlimit:10;" d="
					M171.821,83.479h-52.77c-1.858,0-3.364-1.506-3.364-3.364V24.928c0-1.858,1.506-3.364,3.364-3.364h52.77
					c1.858,0,3.364,1.506,3.364,3.364v55.187C175.185,81.973,173.679,83.479,171.821,83.479z"/>
				
					<path style="fill:#1B2E40;stroke:#1B2E40;stroke-width:3;stroke-linecap:round;stroke-linejoin:round;stroke-miterlimit:10;" d="
					M478.704,61.34h-37.39c-1.71,0-3.096-1.386-3.096-3.096V-7.154c0-1.71,1.386-3.096,3.096-3.096h37.39
					c1.71,0,3.096,1.386,3.096,3.096v65.399C481.8,59.954,480.414,61.34,478.704,61.34z"/>
				
					<path style="fill:#1B2E40;stroke:#1B2E40;stroke-width:3;stroke-linecap:round;stroke-linejoin:round;stroke-miterlimit:10;" d="
					M95.745,275.52h-37.96c-1.552,0-2.811-1.258-2.811-2.811V219.32c0-1.552,1.258-2.811,2.811-2.811h37.96
					c1.552,0,2.811,1.258,2.811,2.811v53.389C98.555,274.261,97.297,275.52,95.745,275.52z"/>
				<path style="fill:none;stroke:#1B2E40;stroke-width:3;stroke-linecap:round;stroke-linejoin:round;stroke-miterlimit:10;" d="
					M156.076,434.514h-37.96c-1.552,0-2.811-1.258-2.811-2.811v-53.389c0-1.552,1.258-2.811,2.811-2.811h37.96
					c1.552,0,2.811,1.258,2.811,2.811v53.389C158.887,433.256,157.628,434.514,156.076,434.514z"/>
				<path style="fill:none;stroke:#1B2E40;stroke-width:3;stroke-linecap:round;stroke-linejoin:round;stroke-miterlimit:10;" d="
					M513.243,477.531h-33.704c-1.816,0-3.289-1.473-3.289-3.289v-80.845c0-1.816,1.472-3.289,3.289-3.289h33.704
					c1.816,0,3.289,1.473,3.289,3.289v80.845C516.532,476.058,515.059,477.531,513.243,477.531z"/>
				<path style="fill:none;stroke:#1B2E40;stroke-width:3;stroke-linecap:round;stroke-linejoin:round;stroke-miterlimit:10;" d="
					M403.455,406.582h-92.099c-3.17,0-5.74-2.57-5.74-5.741v-92.099c0-3.171,2.57-5.741,5.74-5.741h92.099
					c3.17,0,5.741,2.57,5.741,5.741v92.099C409.196,404.012,406.625,406.582,403.455,406.582z"/>
				
					<path style="fill:#1B2E40;stroke:#1B2E40;stroke-width:3;stroke-linecap:round;stroke-linejoin:round;stroke-miterlimit:10;" d="
					M536.058,268.5h-92.099c-3.171,0-5.741-2.57-5.741-5.741v-92.099c0-3.17,2.57-5.741,5.741-5.741h92.099
					c3.17,0,5.74,2.57,5.74,5.741v92.099C541.798,265.93,539.228,268.5,536.058,268.5z"/>
				
					<path style="fill:#1B2E40;stroke:#1B2E40;stroke-width:3;stroke-linecap:round;stroke-linejoin:round;stroke-miterlimit:10;" d="
					M299.259,406.582h-90.867c-3.511,0-6.357-2.846-6.357-6.357V285.938c0-3.511,2.846-6.357,6.357-6.357h90.867
					c3.511,0,6.357,2.846,6.357,6.357v114.288C305.616,403.736,302.77,406.582,299.259,406.582z"/>
				<path style="fill:none;stroke:#1B2E40;stroke-width:3;stroke-linecap:round;stroke-linejoin:round;stroke-miterlimit:10;" d="
					M94.206,332.287h-95.08c-2.347,0-4.25-1.903-4.25-4.25V279.77c0-2.347,1.903-4.25,4.25-4.25h95.08c2.347,0,4.25,1.903,4.25,4.25
					v48.268C98.456,330.384,96.553,332.287,94.206,332.287z"/>
				<path style="fill:none;stroke:#1B2E40;stroke-width:3;stroke-linecap:round;stroke-linejoin:round;stroke-miterlimit:10;" d="
					M195.679,375.102h-90.867c-3.511,0-6.357-2.846-6.357-6.357V254.457c0-3.511,2.846-6.357,6.357-6.357h90.867
					c3.511,0,6.357,2.846,6.357,6.357v114.288C202.036,372.256,199.19,375.102,195.679,375.102z"/>
				<path style="fill:none;stroke:#1B2E40;stroke-width:3;stroke-linecap:round;stroke-linejoin:round;stroke-miterlimit:10;" d="
					M352.751,279.581h-92.099c-3.171,0-5.741-2.57-5.741-5.741v-92.099c0-3.17,2.57-5.74,5.741-5.74h92.099
					c3.171,0,5.741,2.57,5.741,5.74v92.099C358.492,277.011,355.922,279.581,352.751,279.581z"/>
				
					<path style="fill:#1B2E40;stroke:#1B2E40;stroke-width:3;stroke-linecap:round;stroke-linejoin:round;stroke-miterlimit:10;" d="
					M110.642,478.223H51.328c-2.575,0-4.663-2.088-4.663-4.663v-93.796c0-2.575,2.088-4.663,4.663-4.663h59.314
					c2.575,0,4.663,2.088,4.663,4.663v93.796C115.305,476.136,113.218,478.223,110.642,478.223z"/>
				<path style="fill:none;stroke:#1B2E40;stroke-width:3;stroke-linecap:round;stroke-linejoin:round;stroke-miterlimit:10;" d="
					M152.925,581.344H52.628c-3.293,0-5.962-2.669-5.962-5.962v-91.197c0-3.293,2.669-5.962,5.962-5.962h100.297
					c3.293,0,5.962,2.669,5.962,5.962v91.197C158.887,578.675,156.217,581.344,152.925,581.344z"/>
				<path style="fill:none;stroke:#1B2E40;stroke-width:3;stroke-linecap:round;stroke-linejoin:round;stroke-miterlimit:10;" d="
					M423.673,466.216h-54.284c-1.846,0-3.342-1.496-3.342-3.342v-52.95c0-1.846,1.496-3.342,3.342-3.342h54.284
					c1.846,0,3.342,1.496,3.342,3.342v52.95C427.015,464.72,425.518,466.216,423.673,466.216z"/>
				<path style="fill:none;stroke:#1B2E40;stroke-width:3;stroke-linecap:round;stroke-linejoin:round;stroke-miterlimit:10;" d="
					M485.177,373.424h-72.158c-2.112,0-3.823-1.712-3.823-3.823v-51.987c0-2.112,1.712-3.823,3.823-3.823h72.158
					c2.112,0,3.823,1.712,3.823,3.823V369.6C489,371.712,487.288,373.424,485.177,373.424z"/>
				<path style="fill:none;stroke:#1B2E40;stroke-width:3;stroke-linecap:round;stroke-linejoin:round;stroke-miterlimit:10;" d="
					M434.473,303.002h-72.158c-2.112,0-3.823-1.712-3.823-3.823v-51.987c0-2.112,1.712-3.823,3.823-3.823h72.158
					c2.112,0,3.823,1.712,3.823,3.823v51.987C438.296,301.291,436.584,303.002,434.473,303.002z"/>
				<path style="fill:none;stroke:#1B2E40;stroke-width:3;stroke-linecap:round;stroke-linejoin:round;stroke-miterlimit:10;" d="
					M433.581,140.861h-70.374c-2.604,0-4.715-2.111-4.715-4.715V54.886c0-2.604,2.111-4.715,4.715-4.715h70.374
					c2.604,0,4.715,2.111,4.715,4.715v81.261C438.296,138.751,436.185,140.861,433.581,140.861z"/>
				<path style="fill:none;stroke:#1B2E40;stroke-width:3;stroke-linecap:round;stroke-linejoin:round;stroke-miterlimit:10;" d="
					M433.283,243.369h-69.779c-2.768,0-5.013-2.244-5.013-5.013v-92.482c0-2.768,2.244-5.013,5.013-5.013h69.779
					c2.768,0,5.013,2.244,5.013,5.013v92.482C438.296,241.125,436.052,243.369,433.283,243.369z"/>
				<path style="fill:none;stroke:#1B2E40;stroke-width:3;stroke-linecap:round;stroke-linejoin:round;stroke-miterlimit:10;" d="
					M352.751,72.397h-92.099c-3.171,0-5.741-2.57-5.741-5.741v-92.099c0-3.17,2.57-5.741,5.741-5.741h92.099
					c3.171,0,5.741,2.57,5.741,5.741v92.099C358.492,69.827,355.922,72.397,352.751,72.397z"/>
				
					<path style="fill:#1B2E40;stroke:#1B2E40;stroke-width:3;stroke-linecap:round;stroke-linejoin:round;stroke-miterlimit:10;" d="
					M352.751,175.812h-92.099c-3.171,0-5.741-2.57-5.741-5.741V77.973c0-3.17,2.57-5.741,5.741-5.741h92.099
					c3.171,0,5.741,2.57,5.741,5.741v92.099C358.492,173.242,355.922,175.812,352.751,175.812z"/>
				<path style="fill:none;stroke:#1B2E40;stroke-width:3;stroke-linecap:round;stroke-linejoin:round;stroke-miterlimit:10;" d="
					M258.62,453.097h-95.886c-2.125,0-3.847-1.722-3.847-3.847v-38.821c0-2.125,1.722-3.847,3.847-3.847h95.886
					c2.125,0,3.847,1.722,3.847,3.847v38.821C262.467,451.375,260.744,453.097,258.62,453.097z"/>
				<path style="fill:none;stroke:#1B2E40;stroke-width:3;stroke-linecap:round;stroke-linejoin:round;stroke-miterlimit:10;" d="
					M207.648,510.746h-45.733c-1.673,0-3.028-1.356-3.028-3.028v-51.592c0-1.673,1.356-3.028,3.028-3.028h45.733
					c1.673,0,3.028,1.356,3.028,3.028v51.592C210.677,509.39,209.321,510.746,207.648,510.746z"/>
				<path style="fill:none;stroke:#1B2E40;stroke-width:3;stroke-linecap:round;stroke-linejoin:round;stroke-miterlimit:10;" d="
					M260.152,486.771h-47.161c-1.278,0-2.314-1.036-2.314-2.314v-29.044c0-1.278,1.036-2.314,2.314-2.314h47.161
					c1.278,0,2.314,1.036,2.314,2.314v29.044C262.467,485.734,261.43,486.771,260.152,486.771z"/>
				
					<path style="fill:#1B2E40;stroke:#1B2E40;stroke-width:3;stroke-linecap:round;stroke-linejoin:round;stroke-miterlimit:10;" d="
					M110.796,83.479H37.442c-2.702,0-4.892-2.19-4.892-4.892V-5.358c0-2.702,2.19-4.892,4.892-4.892h73.353
					c2.702,0,4.892,2.19,4.892,4.892v83.944C115.688,81.288,113.498,83.479,110.796,83.479z"/>
				<path style="fill:none;stroke:#1B2E40;stroke-width:3;stroke-linecap:round;stroke-linejoin:round;stroke-miterlimit:10;" d="
					M168.679,216.509H78.111c-3.593,0-6.506-2.913-6.506-6.506V89.984c0-3.593,2.913-6.506,6.506-6.506h90.569
					c3.593,0,6.506,2.913,6.506,6.506v120.019C175.185,213.597,172.272,216.509,168.679,216.509z"/>
				<path style="fill:none;stroke:#1B2E40;stroke-width:3;stroke-linecap:round;stroke-linejoin:round;stroke-miterlimit:10;" d="
					M250.274,48.339H179.9c-2.604,0-4.715-2.111-4.715-4.715v-81.261c0-2.604,2.111-4.715,4.715-4.715h70.374
					c2.604,0,4.715,2.111,4.715,4.715v81.261C254.989,46.228,252.878,48.339,250.274,48.339z"/>
				<path style="fill:none;stroke:#1B2E40;stroke-width:3;stroke-linecap:round;stroke-linejoin:round;stroke-miterlimit:10;" d="
					M250.882,248.101h-71.589c-2.269,0-4.108-1.839-4.108-4.108v-60.618c0-2.269,1.839-4.108,4.108-4.108h71.589
					c2.269,0,4.108,1.839,4.108,4.108v60.618C254.989,246.262,253.15,248.101,250.882,248.101z"/>
				
					<path style="fill:#1B2E40;stroke:#1B2E40;stroke-width:3;stroke-linecap:round;stroke-linejoin:round;stroke-miterlimit:10;" d="
					M67.196,179.504h-83.131c-2.435,0-4.409-1.974-4.409-4.409V115.08c0-2.435,1.974-4.409,4.409-4.409h83.131
					c2.435,0,4.409,1.974,4.409,4.409v60.015C71.605,177.53,69.631,179.504,67.196,179.504z"/>
				<path style="fill:none;stroke:#1B2E40;stroke-width:3;stroke-linecap:round;stroke-linejoin:round;stroke-miterlimit:10;" d="
					M249.977,150.846h-69.779c-2.768,0-5.013-2.244-5.013-5.013V53.351c0-2.768,2.244-5.013,5.013-5.013h69.779
					c2.768,0,5.013,2.244,5.013,5.013v92.482C254.989,148.602,252.745,150.846,249.977,150.846z"/>
			</g>
		</g>
	</g>
</g>
<g id="OBJECTS">
	<g>
		<g>
			<path style="fill:#C4CDD6;" d="M311.378,254.856c-0.011-4.559-0.531-8.996-1.485-13.27l8.783-1.96
				c-2.914-13.058-9.489-24.975-19.017-34.464l-6.34,6.366c-3.156-3.143-6.66-5.932-10.436-8.332l4.828-7.595
				c-11.257-7.155-24.288-10.937-37.682-10.937l-0.512,0.014l0.399,8.971c-4.568,0.008-9.014,0.529-13.296,1.485l-1.866-8.601
				c-13.726,2.978-25.408,9.231-34.721,18.584l6.571,6.543c-3.133,3.139-5.914,6.625-8.312,10.38l-7.8-4.792
				c-6.852,11.153-10.474,24.205-10.474,37.747v0.076l8.658-0.036c0.003,4.595,0.526,9.066,1.486,13.372l-8.577,1.793
				c2.809,13.437,9.229,25.471,18.567,34.801l6.554-6.559c3.139,3.131,6.624,5.91,10.379,8.306l-4.797,7.815
				c10.728,6.586,23.306,10.209,37.386,10.768l0.389,0.007l-0.016-8.982c4.565-0.001,9.008-0.516,13.289-1.463l1.944,8.787
				c13.064-2.889,24.993-9.444,34.499-18.954l-6.354-6.35c3.149-3.15,5.943-6.652,8.35-10.424l7.587,4.841
				c7.2-11.283,11.006-24.35,11.006-37.791v-0.145H311.378z M250.027,304.735c-27.468,0-49.734-22.267-49.734-49.734
				s22.267-49.735,49.734-49.735s49.734,22.267,49.734,49.735S277.495,304.735,250.027,304.735z"/>
			<path style="opacity:0.15;" d="M309.892,241.586l2.806-0.626c-2.709-12.143-8.841-22.993-17.351-31.469l-2.029,2.037
				c-3.156-3.143-6.66-5.932-10.436-8.332l1.542-2.426c-9.946-6.322-21.739-9.999-34.397-9.999c-0.081,0-0.16,0.006-0.24,0.006
				l0.128,2.872c-4.568,0.008-9.014,0.529-13.296,1.485l-0.61-2.81c-12.129,2.701-22.971,8.817-31.444,17.308l2.037,2.029
				c-3.133,3.139-5.914,6.625-8.312,10.38l-2.45-1.505c-6.349,9.96-10.042,21.778-10.042,34.465c0,0.015,0.001,0.031,0.001,0.046
				l2.875-0.012c0.003,4.595,0.526,9.066,1.486,13.372l-2.815,0.589c2.7,12.145,8.823,23,17.326,31.48l2.032-2.034
				c3.139,3.131,6.624,5.91,10.379,8.306l-1.504,2.451c9.957,6.342,21.769,10.032,34.449,10.032c0.007,0,0.014-0.001,0.021-0.001
				l-0.005-2.875c4.565-0.001,9.008-0.516,13.289-1.463l0.621,2.808c12.149-2.687,23.012-8.798,31.502-17.292l-2.034-2.033
				c3.149-3.15,5.943-6.652,8.35-10.424l2.424,1.547c6.361-9.967,10.062-21.796,10.062-34.496c0-0.048-0.004-0.096-0.004-0.145
				h-2.875C311.367,250.297,310.846,245.86,309.892,241.586z M250.027,304.735c-27.468,0-49.734-22.267-49.734-49.734
				s22.267-49.735,49.734-49.735s49.734,22.267,49.734,49.735S277.495,304.735,250.027,304.735z"/>
			<path style="fill:#E7EAED;" d="M250.027,193.646c-33.885,0-61.354,27.469-61.354,61.354c0,33.885,27.469,61.354,61.354,61.354
				c33.885,0,61.354-27.469,61.354-61.354C311.381,221.116,283.912,193.646,250.027,193.646z M250.027,297.328
				c-23.377,0-42.328-18.951-42.328-42.328s18.951-42.328,42.328-42.328c23.377,0,42.328,18.951,42.328,42.328
				S273.405,297.328,250.027,297.328z"/>
			<path style="opacity:0.15;" d="M250.027,207.501c-26.233,0-47.499,21.266-47.499,47.499c0,26.233,21.266,47.499,47.499,47.499
				s47.499-21.266,47.499-47.499C297.526,228.767,276.26,207.501,250.027,207.501z M250.027,297.328
				c-23.377,0-42.328-18.951-42.328-42.328s18.951-42.328,42.328-42.328c23.377,0,42.328,18.951,42.328,42.328
				S273.405,297.328,250.027,297.328z"/>
		</g>
	</g>
	<g>
		<path style="fill:#609EC7;" d="M169.363,140.861H62.014c-4.68,0-8.508-3.829-8.508-8.508V58.679c0-4.68,3.829-8.508,8.508-8.508
			h107.349c4.68,0,8.508,3.829,8.508,8.508v73.674C177.871,137.033,174.043,140.861,169.363,140.861z"/>
		<path style="fill:#FFFFFF;" d="M165.225,134.603H66.151c-3.68,0-6.691-3.011-6.691-6.691V72.41h112.456v55.501
			C171.916,131.592,168.905,134.603,165.225,134.603z"/>
		<path style="fill:#467491;" d="M174.118,66.885v-8.416c0-2.742-2.223-4.966-4.966-4.966H62.224c-2.742,0-4.966,2.223-4.966,4.966
			v8.416H174.118z"/>
		<path style="fill:#F54747;" d="M168.691,60.194c0,1.665-1.35,3.015-3.015,3.015c-1.665,0-3.015-1.35-3.015-3.015
			c0-1.665,1.35-3.015,3.015-3.015C167.341,57.179,168.691,58.529,168.691,60.194z"/>
		<circle style="fill:#FFDD00;" cx="154.019" cy="60.194" r="3.015"/>
		<path style="fill:#ADCF65;" d="M145.376,60.194c0,1.665-1.35,3.015-3.015,3.015c-1.665,0-3.015-1.35-3.015-3.015
			c0-1.665,1.35-3.015,3.015-3.015C144.026,57.179,145.376,58.529,145.376,60.194z"/>
	</g>
	<g>
		<rect x="36.766" y="156.397" style="fill:#ADCF65;" width="157.844" height="21.339"/>
	</g>
	<g>
		<rect x="51.984" y="432.215" style="fill:#ADCF65;" width="128.032" height="20.882"/>
	</g>
	<g>
		<rect x="340.582" y="432.215" style="fill:#ADCF65;" width="97.637" height="20.882"/>
	</g>
	<g>
		<rect x="340.582" y="173.609" style="fill:#ADCF65;" width="97.637" height="20.882"/>
	</g>
	<g>
		<path style="fill:#FFFFFF;" d="M448.058,130.015H330.742c-4.855,0-8.827-3.972-8.827-8.827V51.559
			c0-4.855,3.972-8.827,8.827-8.827h117.317c4.855,0,8.827,3.972,8.827,8.827v69.628
			C456.886,126.043,452.913,130.015,448.058,130.015z"/>
		<path style="fill:#609EC7;" d="M446.604,126.629H332.196c-3.795,0-6.899-3.105-6.899-6.899V53.017
			c0-3.795,3.105-6.899,6.899-6.899h114.407c3.795,0,6.899,3.105,6.899,6.899v66.713
			C453.503,123.525,450.398,126.629,446.604,126.629z"/>
		<path style="opacity:0.1;fill:#FFFFFF;" d="M424.213,51.185h-87.29c-3.393,0-6.17,2.777-6.17,6.17v45.364L424.213,51.185z"/>
		<polygon style="fill:#989FA6;" points="415.984,154.294 362.816,154.294 373.206,130.015 405.594,130.015 		"/>
		<path style="fill:#C4CDD6;" d="M420.404,159.945h-62.009c-3.108,0-5.651-2.543-5.651-5.651l0,0c0-3.108,2.543-5.651,5.651-5.651
			h62.009c3.108,0,5.651,2.543,5.651,5.651l0,0C426.056,157.402,423.513,159.945,420.404,159.945z"/>
		<path style="fill:#C4CDD6;" d="M321.914,118.029v3.158c0,4.855,3.972,8.827,8.827,8.827h117.317c4.855,0,8.827-3.972,8.827-8.827
			v-3.158H321.914z"/>
		<path style="fill:#609EC7;" d="M447.352,127.233h-5.034c-0.384,0-0.695-0.311-0.695-0.695v-5.034c0-0.384,0.311-0.695,0.695-0.695
			h5.034c0.384,0,0.695,0.311,0.695,0.695v5.034C448.047,126.923,447.736,127.233,447.352,127.233z"/>
		<path style="fill:#FFFFFF;" d="M437.254,125.718h-2.659c-0.203,0-0.367-0.164-0.367-0.367v-2.659c0-0.203,0.164-0.367,0.367-0.367
			h2.659c0.203,0,0.367,0.164,0.367,0.367v2.659C437.621,125.554,437.457,125.718,437.254,125.718z"/>
		<path style="fill:#FFFFFF;" d="M429.306,125.718h-2.659c-0.203,0-0.367-0.164-0.367-0.367v-2.659c0-0.203,0.164-0.367,0.367-0.367
			h2.659c0.203,0,0.367,0.164,0.367,0.367v2.659C429.673,125.554,429.509,125.718,429.306,125.718z"/>
		<path style="fill:#FFFFFF;" d="M421.358,125.718h-2.659c-0.203,0-0.367-0.164-0.367-0.367v-2.659c0-0.203,0.164-0.367,0.367-0.367
			h2.659c0.203,0,0.367,0.164,0.367,0.367v2.659C421.724,125.554,421.56,125.718,421.358,125.718z"/>
	</g>
	<g>
		<g>
			<rect x="74.891" y="320.939" style="fill:#747A80;" width="82.217" height="99.293"/>
			<path style="fill:#A8B0B8;" d="M157.109,420.232H74.891c-2.814,0-5.116-2.302-5.116-5.116v-12.464
				c0-2.814,2.302-5.116,5.116-5.116l82.217,0c2.814,0,5.116,2.302,5.116,5.116v12.464
				C162.224,417.93,159.922,420.232,157.109,420.232z"/>
			<path style="fill:#C4CDD6;" d="M157.109,394.7l-82.217,0c-2.814,0-5.116-2.302-5.116-5.116V377.12
				c0-2.814,2.302-5.116,5.116-5.116l82.217,0c2.814,0,5.116,2.302,5.116,5.116v12.464C162.224,392.398,159.922,394.7,157.109,394.7
				z"/>
			<path style="fill:#747A80;" d="M107.887,384.583l-30.974,0c-0.677,0-1.231-0.554-1.231-1.231l0,0
				c0-0.677,0.554-1.231,1.231-1.231h30.974c0.677,0,1.231,0.554,1.231,1.231l0,0C109.118,384.029,108.564,384.583,107.887,384.583z
				"/>
			<path style="fill:#A8B0B8;" d="M100.047,378.941H76.913c-0.677,0-1.231-0.554-1.231-1.231l0,0c0-0.677,0.554-1.231,1.231-1.231
				h23.134c0.677,0,1.231,0.554,1.231,1.231l0,0C101.278,378.387,100.724,378.941,100.047,378.941z"/>
			<path style="fill:#A8B0B8;" d="M157.109,369.167l-82.217,0c-2.814,0-5.116-2.302-5.116-5.116v-12.464
				c0-2.814,2.302-5.116,5.116-5.116h82.217c2.814,0,5.116,2.302,5.116,5.116v12.464
				C162.224,366.865,159.922,369.167,157.109,369.167z"/>
			<path style="fill:#C4CDD6;" d="M157.109,343.635H74.891c-2.814,0-5.116-2.302-5.116-5.116v-12.464
				c0-2.814,2.302-5.116,5.116-5.116l82.217,0c2.814,0,5.116,2.302,5.116,5.116v12.464
				C162.224,341.333,159.922,343.635,157.109,343.635z"/>
			<path style="opacity:0.15;" d="M157.109,413.735l-82.217,0c-2.814,0-5.116-2.302-5.116-5.116v6.497
				c0,2.814,2.302,5.116,5.116,5.116h82.217c2.814,0,5.116-2.302,5.116-5.116v-6.497
				C162.224,411.433,159.922,413.735,157.109,413.735z"/>
			<path style="opacity:0.15;" d="M157.109,388.203l-82.217,0c-2.814,0-5.116-2.302-5.116-5.116v6.497
				c0,2.814,2.302,5.116,5.116,5.116l82.217,0c2.814,0,5.116-2.302,5.116-5.116v-6.497
				C162.224,385.901,159.922,388.203,157.109,388.203z"/>
			<path style="opacity:0.15;" d="M157.109,362.67l-82.217,0c-2.814,0-5.116-2.302-5.116-5.116v6.497
				c0,2.813,2.302,5.116,5.116,5.116h82.217c2.814,0,5.116-2.302,5.116-5.116v-6.497C162.224,360.368,159.922,362.67,157.109,362.67
				z"/>
			<path style="opacity:0.15;" d="M157.109,337.138l-82.217,0c-2.814,0-5.116-2.302-5.116-5.116v6.497
				c0,2.814,2.302,5.116,5.116,5.116l82.217,0c2.814,0,5.116-2.302,5.116-5.116v-6.497
				C162.224,334.836,159.922,337.138,157.109,337.138z"/>
		</g>
		<g style="opacity:0.15;">
			<path d="M132.351,400.301c-1.298,0-2.355,1.056-2.355,2.354c0,1.298,1.057,2.354,2.355,2.354c1.298,0,2.354-1.056,2.354-2.354
				C134.706,401.357,133.65,400.301,132.351,400.301z"/>
			<path d="M139.6,400.301c-1.298,0-2.354,1.056-2.354,2.354c0,1.298,1.056,2.354,2.354,2.354c1.298,0,2.355-1.056,2.355-2.354
				C141.954,401.357,140.898,400.301,139.6,400.301z"/>
			<path d="M146.848,400.301c-1.298,0-2.355,1.056-2.355,2.354c0,1.298,1.057,2.354,2.355,2.354s2.354-1.056,2.354-2.354
				C149.203,401.357,148.146,400.301,146.848,400.301z"/>
			<path d="M154.096,400.301c-1.298,0-2.354,1.056-2.354,2.354c0,1.298,1.056,2.354,2.354,2.354c1.298,0,2.355-1.056,2.355-2.354
				C156.451,401.357,155.395,400.301,154.096,400.301z"/>
		</g>
		<g>
			<path style="fill:#E7EAED;" d="M133.89,402.655c0,0.85-0.689,1.539-1.539,1.539c-0.85,0-1.539-0.689-1.539-1.539
				c0-0.85,0.689-1.539,1.539-1.539C133.201,401.116,133.89,401.805,133.89,402.655z"/>
			<path style="fill:#FFDD00;" d="M141.139,402.655c0,0.85-0.689,1.539-1.539,1.539c-0.85,0-1.539-0.689-1.539-1.539
				c0-0.85,0.689-1.539,1.539-1.539C140.45,401.116,141.139,401.805,141.139,402.655z"/>
			<path style="fill:#FFDD00;" d="M148.387,402.655c0,0.85-0.689,1.539-1.539,1.539c-0.85,0-1.539-0.689-1.539-1.539
				c0-0.85,0.689-1.539,1.539-1.539C147.698,401.116,148.387,401.805,148.387,402.655z"/>
			<path style="fill:#ADCF65;" d="M155.636,402.655c0,0.85-0.689,1.539-1.539,1.539c-0.85,0-1.539-0.689-1.539-1.539
				c0-0.85,0.689-1.539,1.539-1.539C154.947,401.116,155.636,401.805,155.636,402.655z"/>
		</g>
		<g style="opacity:0.15;">
			<path d="M132.351,349.464c-1.298,0-2.355,1.056-2.355,2.354c0,1.298,1.057,2.354,2.355,2.354c1.298,0,2.354-1.056,2.354-2.354
				C134.706,350.52,133.65,349.464,132.351,349.464z"/>
			<path d="M139.6,349.464c-1.298,0-2.354,1.056-2.354,2.354c0,1.298,1.056,2.354,2.354,2.354c1.298,0,2.355-1.056,2.355-2.354
				C141.954,350.52,140.898,349.464,139.6,349.464z"/>
			<path d="M146.848,349.464c-1.298,0-2.355,1.056-2.355,2.354c0,1.298,1.056,2.354,2.355,2.354c1.298,0,2.354-1.056,2.354-2.354
				C149.203,350.52,148.147,349.464,146.848,349.464z"/>
			<path d="M154.097,349.464c-1.298,0-2.354,1.056-2.354,2.354c0,1.298,1.056,2.354,2.354,2.354c1.298,0,2.355-1.056,2.355-2.354
				C156.451,350.52,155.395,349.464,154.097,349.464z"/>
		</g>
		<g>
			<circle style="fill:#E7EAED;" cx="132.351" cy="351.818" r="1.539"/>
			<circle style="fill:#E7EAED;" cx="139.6" cy="351.818" r="1.539"/>
			<path style="fill:#ADCF65;" d="M148.387,351.818c0,0.85-0.689,1.539-1.539,1.539c-0.85,0-1.539-0.689-1.539-1.539
				c0-0.85,0.689-1.539,1.539-1.539C147.698,350.279,148.387,350.968,148.387,351.818z"/>
			<path style="fill:#ADCF65;" d="M155.636,351.818c0,0.85-0.689,1.539-1.539,1.539c-0.85,0-1.539-0.689-1.539-1.539
				c0-0.85,0.689-1.539,1.539-1.539C154.947,350.279,155.636,350.968,155.636,351.818z"/>
		</g>
	</g>
	<g>
		<path style="fill:#609EC7;" d="M424.465,418.228h-70.129c-8.592,0-15.623-7.03-15.623-15.623l0,0
			c0-8.592,7.03-15.623,15.623-15.623h70.129c8.592,0,15.623,7.03,15.623,15.623l0,0
			C440.087,411.198,433.057,418.228,424.465,418.228z"/>
		<path style="opacity:0.15;" d="M424.465,414.035h-70.129c-7.88,0-14.429-5.918-15.464-13.526
			c-0.094,0.688-0.159,1.384-0.159,2.097l0,0c0,8.592,7.03,15.623,15.623,15.623h70.129c8.592,0,15.623-7.03,15.623-15.623l0,0
			c0-0.713-0.065-1.409-0.159-2.097C438.894,408.117,432.345,414.035,424.465,414.035z"/>
		<path style="fill:#FFDD00;" d="M376.676,404.669h-26.529c-1.135,0-2.063-0.928-2.063-2.063l0,0c0-1.135,0.928-2.063,2.063-2.063
			h26.529c1.135,0,2.063,0.929,2.063,2.063l0,0C378.74,403.741,377.811,404.669,376.676,404.669z"/>
		<path style="fill:#4E81A1;" d="M399.963,404.669h-7.369c-1.135,0-2.063-0.928-2.063-2.063l0,0c0-1.135,0.928-2.063,2.063-2.063
			h7.369c1.135,0,2.063,0.929,2.063,2.063l0,0C402.026,403.741,401.098,404.669,399.963,404.669z"/>
		<path style="fill:#ADCF65;" d="M415.769,404.669H408.4c-1.135,0-2.063-0.928-2.063-2.063l0,0c0-1.135,0.928-2.063,2.063-2.063
			h7.369c1.135,0,2.063,0.929,2.063,2.063l0,0C417.832,403.741,416.904,404.669,415.769,404.669z"/>
		<path style="fill:#4E81A1;" d="M431.575,404.669h-7.369c-1.135,0-2.063-0.928-2.063-2.063l0,0c0-1.135,0.928-2.063,2.063-2.063
			h7.369c1.135,0,2.063,0.929,2.063,2.063l0,0C433.639,403.741,432.71,404.669,431.575,404.669z"/>
	</g>
	<g>
		<path style="fill:#4E81A1;" d="M424.465,386.983h-70.129c-8.592,0-15.623-7.03-15.623-15.623l0,0
			c0-8.592,7.03-15.623,15.623-15.623h70.129c8.592,0,15.623,7.03,15.623,15.623l0,0
			C440.087,379.953,433.057,386.983,424.465,386.983z"/>
		<path style="opacity:0.15;" d="M424.465,382.79h-70.129c-7.88,0-14.429-5.918-15.464-13.526c-0.094,0.688-0.159,1.384-0.159,2.097
			c0,8.592,7.03,15.623,15.623,15.623h70.129c8.592,0,15.623-7.03,15.623-15.623c0-0.713-0.065-1.409-0.159-2.097
			C438.894,376.872,432.345,382.79,424.465,382.79z"/>
		<path style="fill:#609EC7;" d="M376.676,373.424h-26.529c-1.135,0-2.063-0.928-2.063-2.063l0,0c0-1.135,0.928-2.063,2.063-2.063
			h26.529c1.135,0,2.063,0.928,2.063,2.063l0,0C378.74,372.495,377.811,373.424,376.676,373.424z"/>
		<path style="fill:#ADCF65;" d="M399.963,373.424h-7.369c-1.135,0-2.063-0.928-2.063-2.063l0,0c0-1.135,0.928-2.063,2.063-2.063
			h7.369c1.135,0,2.063,0.928,2.063,2.063l0,0C402.026,372.495,401.098,373.424,399.963,373.424z"/>
		<path style="fill:#609EC7;" d="M415.769,373.424H408.4c-1.135,0-2.063-0.928-2.063-2.063l0,0c0-1.135,0.928-2.063,2.063-2.063
			h7.369c1.135,0,2.063,0.928,2.063,2.063l0,0C417.832,372.495,416.904,373.424,415.769,373.424z"/>
		<path style="fill:#609EC7;" d="M431.575,373.424h-7.369c-1.135,0-2.063-0.928-2.063-2.063l0,0c0-1.135,0.928-2.063,2.063-2.063
			h7.369c1.135,0,2.063,0.928,2.063,2.063l0,0C433.639,372.495,432.71,373.424,431.575,373.424z"/>
	</g>
	<g>
		<path style="fill:#609EC7;" d="M424.465,355.738h-70.129c-8.592,0-15.623-7.03-15.623-15.623v0c0-8.592,7.03-15.623,15.623-15.623
			h70.129c8.592,0,15.623,7.03,15.623,15.623v0C440.087,348.708,433.057,355.738,424.465,355.738z"/>
		<path style="opacity:0.15;" d="M424.465,351.544h-70.129c-7.88,0-14.429-5.918-15.464-13.526
			c-0.094,0.688-0.159,1.384-0.159,2.097c0,8.592,7.03,15.623,15.623,15.623h70.129c8.592,0,15.623-7.03,15.623-15.623
			c0-0.713-0.065-1.409-0.159-2.097C438.894,345.626,432.345,351.544,424.465,351.544z"/>
		<path style="fill:#ADCF65;" d="M376.676,342.178h-26.529c-1.135,0-2.063-0.928-2.063-2.063l0,0c0-1.135,0.928-2.063,2.063-2.063
			h26.529c1.135,0,2.063,0.928,2.063,2.063l0,0C378.74,341.25,377.811,342.178,376.676,342.178z"/>
		<path style="fill:#4E81A1;" d="M399.963,342.178h-7.369c-1.135,0-2.063-0.928-2.063-2.063l0,0c0-1.135,0.928-2.063,2.063-2.063
			h7.369c1.135,0,2.063,0.928,2.063,2.063l0,0C402.026,341.25,401.098,342.178,399.963,342.178z"/>
		<path style="fill:#4E81A1;" d="M415.769,342.178H408.4c-1.135,0-2.063-0.928-2.063-2.063l0,0c0-1.135,0.928-2.063,2.063-2.063
			h7.369c1.135,0,2.063,0.928,2.063,2.063l0,0C417.832,341.25,416.904,342.178,415.769,342.178z"/>
		<path style="fill:#4E81A1;" d="M431.575,342.178h-7.369c-1.135,0-2.063-0.928-2.063-2.063l0,0c0-1.135,0.928-2.063,2.063-2.063
			h7.369c1.135,0,2.063,0.928,2.063,2.063l0,0C433.639,341.25,432.71,342.178,431.575,342.178z"/>
	</g>
	<g>
		<g>
			<path style="fill:none;stroke:#FFFFFF;stroke-width:2;stroke-linecap:round;stroke-linejoin:round;stroke-miterlimit:10;" d="
				M115.834,301.781v-58.114c0-3.921,3.178-7.099,7.099-7.099h38.55"/>
			<path style="fill:#FFFFFF;" d="M168.085,237.745l-14.094,4.335c-0.791,0.243-1.592-0.348-1.592-1.176v-8.669
				c0-0.828,0.801-1.42,1.592-1.176l14.094,4.335C169.244,235.749,169.244,237.389,168.085,237.745z"/>
			<path style="fill:#FFFFFF;" d="M114.658,306.135l-4.335-14.094c-0.243-0.791,0.348-1.592,1.176-1.592h8.669
				c0.828,0,1.42,0.801,1.176,1.592l-4.335,14.094C116.654,307.293,115.014,307.293,114.658,306.135z"/>
		</g>
		<g>
			<path style="fill:none;stroke:#FFFFFF;stroke-width:2;stroke-linecap:round;stroke-linejoin:round;stroke-miterlimit:10;" d="
				M97.397,301.781v-75.059c0-4.272,3.463-7.735,7.735-7.735h56.351"/>
			<path style="fill:#FFFFFF;" d="M168.085,220.163l-14.094,4.335c-0.791,0.243-1.592-0.348-1.592-1.176v-8.669
				c0-0.828,0.801-1.42,1.592-1.176l14.094,4.335C169.244,218.167,169.244,219.807,168.085,220.163z"/>
			<path style="fill:#FFFFFF;" d="M96.221,306.135l-4.335-14.094c-0.243-0.791,0.348-1.592,1.176-1.592h8.669
				c0.828,0,1.42,0.801,1.176,1.592l-4.334,14.094C98.217,307.293,96.577,307.293,96.221,306.135z"/>
		</g>
	</g>
	<g>
		<path style="fill:none;stroke:#FFFFFF;stroke-width:2;stroke-linecap:round;stroke-linejoin:round;stroke-miterlimit:10;" d="
			M400.394,205.227v54.694c0,6.157-4.992,11.149-11.149,11.149h-50.501"/>
		<path style="fill:none;stroke:#FFFFFF;stroke-width:2;stroke-linecap:round;stroke-linejoin:round;stroke-miterlimit:10;" d="
			M382.518,211.054v36.312c0,4.405-3.067,6.976-8.083,6.976h-37.964"/>
		<path style="fill:#FFFFFF;" d="M332.141,269.893l14.094-4.335c0.791-0.243,1.592,0.348,1.592,1.176v8.669
			c0,0.828-0.801,1.42-1.592,1.176l-14.094-4.335C330.983,271.89,330.983,270.25,332.141,269.893z"/>
		<path style="fill:#FFFFFF;" d="M383.695,206.095l4.334,14.094c0.243,0.791-0.348,1.592-1.176,1.592h-8.669
			c-0.828,0-1.42-0.801-1.176-1.592l4.335-14.094C381.698,204.937,383.338,204.937,383.695,206.095z"/>
	</g>
	<g>
		
			<line style="fill:none;stroke:#FFFFFF;stroke-width:2;stroke-linecap:round;stroke-linejoin:round;stroke-miterlimit:10;" x1="200.617" y1="85.939" x2="302.22" y2="85.939"/>
		
			<line style="fill:none;stroke:#FFFFFF;stroke-width:2;stroke-linecap:round;stroke-linejoin:round;stroke-miterlimit:10;" x1="195.159" y1="106.551" x2="299.762" y2="106.551"/>
		<path style="fill:#FFFFFF;" d="M306.268,84.763l-14.094-4.335c-0.791-0.243-1.592,0.348-1.592,1.176v8.669
			c0,0.828,0.801,1.42,1.592,1.176l14.094-4.335C307.426,86.759,307.426,85.119,306.268,84.763z"/>
		<path style="fill:#FFFFFF;" d="M193.072,107.728l14.093,4.335c0.791,0.243,1.593-0.348,1.593-1.176v-8.669
			c0-0.828-0.801-1.42-1.593-1.176l-14.093,4.335C191.913,105.731,191.913,107.371,193.072,107.728z"/>
	</g>
	
		<line style="fill:none;stroke:#FFFFFF;stroke-width:2;stroke-linecap:round;stroke-linejoin:round;stroke-miterlimit:10;" x1="179.637" y1="376.288" x2="320.363" y2="376.288"/>
	
		<line style="fill:none;stroke:#FFFFFF;stroke-width:2;stroke-linecap:round;stroke-linejoin:round;stroke-miterlimit:10;" x1="179.637" y1="388.893" x2="320.363" y2="388.893"/>
</g>
<g id="TEXTS">
	
		<text transform="matrix(1 0 0 1 219.6123 275.5197)" style="fill:#FFFFFF; font-family:'BebasNeue-Regular'; font-size:62.1309px;">API</text>
	<g>
		<text transform="matrix(1 0 0 1 42.4834 171.7581)" style="fill:#FFFFFF; font-family:'Montserrat-Light'; font-size:12.2623px;">WEB APP IN BROWSER</text>
	</g>
	<g>
		<text transform="matrix(1 0 0 1 74.0021 447.2474)" style="fill:#FFFFFF; font-family:'Montserrat-Light'; font-size:12.2623px;">WEB SERVER</text>
	</g>
	<g>
		
			<text transform="matrix(1 0 0 1 355.4708 447.2474)" style="fill:#FFFFFF; font-family:'Montserrat-Light'; font-size:12.2623px;">DATABASE</text>
	</g>
	<g>
		
			<text transform="matrix(1 0 0 1 358.0885 188.6415)" style="fill:#FFFFFF; font-family:'Montserrat-Light'; font-size:12.2623px;">INTERNET</text>
	</g>
</g>
</svg>
