<?xml version="1.0" encoding="utf-8"?>
<!-- Generator: Adobe Illustrator 27.5.0, SVG Export Plug-In . SVG Version: 6.00 Build 0)  -->
<svg version="1.1" xmlns="http://www.w3.org/2000/svg" xmlns:xlink="http://www.w3.org/1999/xlink" x="0px" y="0px"
	 viewBox="0 0 750 500" style="enable-background:new 0 0 750 500;" xml:space="preserve">
<g id="BACKGROUND">
	<linearGradient id="SVGID_1_" gradientUnits="userSpaceOnUse" x1="375" y1="1" x2="375" y2="503.145">
		<stop  offset="0" style="stop-color:#E8EAF6"/>
		<stop  offset="0.3283" style="stop-color:#E2E4F4"/>
		<stop  offset="0.7718" style="stop-color:#D1D5ED"/>
		<stop  offset="1" style="stop-color:#C5CAE9"/>
	</linearGradient>
	<rect style="fill:url(#SVGID_1_);" width="750" height="500"/>
</g>
<g id="OBJECTS">
	<g>
		<g>
			<polygon style="fill:#FFFFFF;" points="137.043,423.724 144.752,412.863 129.335,412.863 			"/>
			<polygon style="fill:#FFFFFF;" points="256.021,423.724 263.73,412.863 248.313,412.863 			"/>
			<polygon style="fill:#FFFFFF;" points="374.999,423.724 382.708,412.863 367.291,412.863 			"/>
			<polygon style="fill:#FFFFFF;" points="493.977,423.724 501.686,412.863 486.269,412.863 			"/>
			<polygon style="fill:#FFFFFF;" points="605.247,412.863 612.955,423.724 620.664,412.863 			"/>
		</g>
		<g>
			<path style="fill:none;stroke:#FFFFFF;stroke-width:2;stroke-linecap:round;stroke-linejoin:round;stroke-miterlimit:10;" d="
				M137.043,284.041v-37.479c0-6.293,5.102-11.395,11.395-11.395h151.083c6.293,0,11.395-5.102,11.395-11.395v-6.771"/>
			<path style="fill:none;stroke:#FFFFFF;stroke-width:2;stroke-linecap:round;stroke-linejoin:round;stroke-miterlimit:10;" d="
				M612.957,284.041v-37.479c0-6.293-5.102-11.395-11.395-11.395H450.479c-6.293,0-11.395-5.102-11.395-11.395v-6.771"/>
			<path style="fill:none;stroke:#FFFFFF;stroke-width:2;stroke-linecap:round;stroke-linejoin:round;stroke-miterlimit:10;" d="
				M256.324,284.041v-16.123c0-6.293,5.102-11.395,11.395-11.395h64.001c6.293,0,11.395-5.102,11.395-11.395v-28.127"/>
			<path style="fill:none;stroke:#FFFFFF;stroke-width:2;stroke-linecap:round;stroke-linejoin:round;stroke-miterlimit:10;" d="
				M493.676,284.041v-16.123c0-6.293-5.102-11.395-11.395-11.395H418.28c-6.293,0-11.395-5.102-11.395-11.395v-28.127"/>
			
				<line style="fill:none;stroke:#FFFFFF;stroke-width:2;stroke-linecap:round;stroke-linejoin:round;stroke-miterlimit:10;" x1="375" y1="217.001" x2="375" y2="284.041"/>
		</g>
		<g>
			<g>
				
					<linearGradient id="SVGID_00000100368678747975524360000012858209878066183844_" gradientUnits="userSpaceOnUse" x1="455.5379" y1="383.6691" x2="532.419" y2="306.788">
					<stop  offset="0" style="stop-color:#3949AB"/>
					<stop  offset="1" style="stop-color:#5C6BC0"/>
				</linearGradient>
				<circle style="fill:url(#SVGID_00000100368678747975524360000012858209878066183844_);" cx="493.978" cy="345.229" r="54.363"/>
				<g>
					<g>
						
							<linearGradient id="SVGID_00000116918811004423115630000005119849514695767964_" gradientUnits="userSpaceOnUse" x1="462.1587" y1="377.0483" x2="525.7983" y2="313.4087">
							<stop  offset="0" style="stop-color:#C5CAE9"/>
							<stop  offset="0.2282" style="stop-color:#D1D5ED"/>
							<stop  offset="0.6717" style="stop-color:#E2E4F4"/>
							<stop  offset="1" style="stop-color:#E8EAF6"/>
						</linearGradient>
						<path style="fill:url(#SVGID_00000116918811004423115630000005119849514695767964_);" d="M493.978,300.228
							c-24.853,0-45,20.147-45,45c0,24.853,20.147,45,45,45c24.853,0,45-20.147,45-45
							C538.978,320.376,518.831,300.228,493.978,300.228z"/>
					</g>
				</g>
				<g>
					<rect x="473.265" y="329.819" style="fill:#242B5B;" width="41.427" height="30.818"/>
					<g>
						
							<linearGradient id="SVGID_00000164496954284140482900000000894777838105007500_" gradientUnits="userSpaceOnUse" x1="468.4784" y1="329.8195" x2="519.4784" y2="329.8195">
							<stop  offset="0" style="stop-color:#FF9100"/>
							<stop  offset="1" style="stop-color:#FFC46E"/>
						</linearGradient>
						<path style="fill:url(#SVGID_00000164496954284140482900000000894777838105007500_);" d="M517.912,335.711h-47.866
							c-0.865,0-1.567-0.701-1.567-1.567v-5.191c0-2.775,2.25-5.025,5.025-5.025h40.95c2.775,0,5.025,2.25,5.025,5.025v5.191
							C519.478,335.009,518.777,335.711,517.912,335.711z"/>
						<path style="fill:#FFFFFF;" d="M476.444,329.819c0,1.072-0.869,1.94-1.94,1.94c-1.072,0-1.94-0.869-1.94-1.94
							c0-1.072,0.869-1.94,1.94-1.94C475.575,327.879,476.444,328.748,476.444,329.819z"/>
						<circle style="fill:#FFFFFF;" cx="482.001" cy="329.819" r="1.94"/>
						<circle style="fill:#FFFFFF;" cx="489.499" cy="329.819" r="1.94"/>
					</g>
					<g>
						
							<linearGradient id="SVGID_00000107588267126064642220000007451093127976627897_" gradientUnits="userSpaceOnUse" x1="468.4784" y1="345.2285" x2="519.4784" y2="345.2285">
							<stop  offset="0" style="stop-color:#FF9100"/>
							<stop  offset="1" style="stop-color:#FFC46E"/>
						</linearGradient>
						<path style="fill:url(#SVGID_00000107588267126064642220000007451093127976627897_);" d="M517.912,351.12h-47.866
							c-0.865,0-1.567-0.702-1.567-1.567v-5.191c0-2.775,2.25-5.025,5.025-5.025h40.95c2.775,0,5.025,2.25,5.025,5.025v5.191
							C519.478,350.418,518.777,351.12,517.912,351.12z"/>
						<path style="fill:#FFFFFF;" d="M476.444,345.228c0,1.072-0.869,1.94-1.94,1.94c-1.072,0-1.94-0.869-1.94-1.94
							c0-1.072,0.869-1.94,1.94-1.94C475.575,343.288,476.444,344.157,476.444,345.228z"/>
						<circle style="fill:#FFFFFF;" cx="482.001" cy="345.228" r="1.94"/>
						<circle style="fill:#FFFFFF;" cx="489.499" cy="345.228" r="1.94"/>
					</g>
					<g>
						
							<linearGradient id="SVGID_00000114039395286565993900000017324278428842476175_" gradientUnits="userSpaceOnUse" x1="468.4784" y1="360.6375" x2="519.4784" y2="360.6375">
							<stop  offset="0" style="stop-color:#FF9100"/>
							<stop  offset="1" style="stop-color:#FFC46E"/>
						</linearGradient>
						<path style="fill:url(#SVGID_00000114039395286565993900000017324278428842476175_);" d="M517.912,366.529h-47.866
							c-0.865,0-1.567-0.702-1.567-1.567v-5.191c0-2.775,2.25-5.025,5.025-5.025h40.95c2.775,0,5.025,2.25,5.025,5.025v5.191
							C519.478,365.827,518.777,366.529,517.912,366.529z"/>
						<path style="fill:#FFFFFF;" d="M476.444,360.638c0,1.072-0.869,1.94-1.94,1.94c-1.072,0-1.94-0.869-1.94-1.94
							c0-1.072,0.869-1.94,1.94-1.94C475.575,358.697,476.444,359.566,476.444,360.638z"/>
						<circle style="fill:#FFFFFF;" cx="482.001" cy="360.638" r="1.94"/>
						<circle style="fill:#FFFFFF;" cx="489.499" cy="360.638" r="1.94"/>
					</g>
				</g>
			</g>
			<g>
				
					<linearGradient id="SVGID_00000106865004850155212520000009657702431532391816_" gradientUnits="userSpaceOnUse" x1="574.5164" y1="383.6691" x2="651.3975" y2="306.788">
					<stop  offset="0" style="stop-color:#3949AB"/>
					<stop  offset="1" style="stop-color:#5C6BC0"/>
				</linearGradient>
				<circle style="fill:url(#SVGID_00000106865004850155212520000009657702431532391816_);" cx="612.957" cy="345.229" r="54.363"/>
				<g>
					<g>
						
							<linearGradient id="SVGID_00000075883114509028490440000009934783744252018096_" gradientUnits="userSpaceOnUse" x1="581.1371" y1="377.0483" x2="644.7767" y2="313.4087">
							<stop  offset="0" style="stop-color:#C5CAE9"/>
							<stop  offset="0.2282" style="stop-color:#D1D5ED"/>
							<stop  offset="0.6717" style="stop-color:#E2E4F4"/>
							<stop  offset="1" style="stop-color:#E8EAF6"/>
						</linearGradient>
						<path style="fill:url(#SVGID_00000075883114509028490440000009934783744252018096_);" d="M612.957,300.228
							c-24.853,0-45,20.147-45,45c0,24.853,20.147,45,45,45c24.853,0,45-20.147,45-45
							C657.957,320.376,637.81,300.228,612.957,300.228z"/>
					</g>
				</g>
				<g>
					<g>
						
							<linearGradient id="SVGID_00000021829957536105483700000000447552370007479457_" gradientUnits="userSpaceOnUse" x1="592.2903" y1="362.1581" x2="633.6236" y2="362.1581">
							<stop  offset="0" style="stop-color:#C445C0"/>
							<stop  offset="1" style="stop-color:#FF3EFF"/>
						</linearGradient>
						<path style="fill:url(#SVGID_00000021829957536105483700000000447552370007479457_);" d="M625.777,354.222
							c-3.524-1.022-7.975-1.635-12.82-1.635c-4.844,0-9.296,0.612-12.82,1.635h-7.847v9.937c0,4.18,9.253,7.569,20.667,7.569
							c11.414,0,20.667-3.389,20.667-7.569v-9.937H625.777z"/>
						<ellipse style="fill:#242B5B;" cx="612.957" cy="354.222" rx="20.667" ry="7.569"/>
					</g>
					<g>
						
							<linearGradient id="SVGID_00000032628440865331697270000016100342182854320007_" gradientUnits="userSpaceOnUse" x1="592.2903" y1="348.1958" x2="633.6236" y2="348.1958">
							<stop  offset="0" style="stop-color:#C445C0"/>
							<stop  offset="1" style="stop-color:#FF3EFF"/>
						</linearGradient>
						<path style="fill:url(#SVGID_00000032628440865331697270000016100342182854320007_);" d="M625.777,340.26
							c-3.524-1.022-7.975-1.635-12.82-1.635c-4.844,0-9.296,0.612-12.82,1.635h-7.847v9.937c0,4.18,9.253,7.569,20.667,7.569
							c11.414,0,20.667-3.389,20.667-7.569v-9.937H625.777z"/>
						<ellipse style="fill:#242B5B;" cx="612.957" cy="340.26" rx="20.667" ry="7.569"/>
					</g>
					<g>
						
							<linearGradient id="SVGID_00000044872597423009390360000012712051295109345415_" gradientUnits="userSpaceOnUse" x1="592.2903" y1="334.2335" x2="633.6236" y2="334.2335">
							<stop  offset="0" style="stop-color:#C445C0"/>
							<stop  offset="1" style="stop-color:#FF3EFF"/>
						</linearGradient>
						<path style="fill:url(#SVGID_00000044872597423009390360000012712051295109345415_);" d="M625.777,326.298
							c-3.524-1.022-7.975-1.635-12.82-1.635c-4.844,0-9.296,0.612-12.82,1.635h-7.847v9.937c0,4.18,9.253,7.569,20.667,7.569
							c11.414,0,20.667-3.389,20.667-7.569v-9.937H625.777z"/>
						<ellipse style="fill:#242B5B;" cx="612.957" cy="326.298" rx="20.667" ry="7.569"/>
					</g>
				</g>
			</g>
			<g>
				
					<linearGradient id="SVGID_00000056424760869484032990000003636595005923993481_" gradientUnits="userSpaceOnUse" x1="336.5595" y1="383.6691" x2="413.4406" y2="306.788">
					<stop  offset="0" style="stop-color:#3949AB"/>
					<stop  offset="1" style="stop-color:#5C6BC0"/>
				</linearGradient>
				<circle style="fill:url(#SVGID_00000056424760869484032990000003636595005923993481_);" cx="375" cy="345.229" r="54.363"/>
				<g>
					<g>
						
							<linearGradient id="SVGID_00000137825632456266061590000007909740868721297025_" gradientUnits="userSpaceOnUse" x1="343.1802" y1="377.0483" x2="406.8198" y2="313.4087">
							<stop  offset="0" style="stop-color:#C5CAE9"/>
							<stop  offset="0.2282" style="stop-color:#D1D5ED"/>
							<stop  offset="0.6717" style="stop-color:#E2E4F4"/>
							<stop  offset="1" style="stop-color:#E8EAF6"/>
						</linearGradient>
						<path style="fill:url(#SVGID_00000137825632456266061590000007909740868721297025_);" d="M375,300.228
							c-24.853,0-45,20.147-45,45c0,24.853,20.147,45,45,45c24.853,0,45-20.147,45-45C420,320.376,399.853,300.228,375,300.228z"/>
					</g>
				</g>
				<g>
					<g>
						
							<linearGradient id="SVGID_00000036936061174334054230000002660814202664219024_" gradientUnits="userSpaceOnUse" x1="353.4735" y1="366.7551" x2="396.5266" y2="323.702">
							<stop  offset="0" style="stop-color:#C5CAE9"/>
							<stop  offset="0.2282" style="stop-color:#D1D5ED"/>
							<stop  offset="0.6717" style="stop-color:#E2E4F4"/>
							<stop  offset="1" style="stop-color:#E8EAF6"/>
						</linearGradient>
						<path style="fill:url(#SVGID_00000036936061174334054230000002660814202664219024_);" d="M387.641,374.303h-25.282
							c-1.783,0-3.228-1.445-3.228-3.228v-51.693c0-1.783,1.445-3.228,3.228-3.228h25.282c1.783,0,3.228,1.445,3.228,3.228v51.693
							C390.87,372.858,389.424,374.303,387.641,374.303z"/>
						
							<linearGradient id="SVGID_00000010309519168309374780000009293589888185722759_" gradientUnits="userSpaceOnUse" x1="358.1305" y1="345.2285" x2="391.8696" y2="345.2285">
							<stop  offset="0" style="stop-color:#3949AB"/>
							<stop  offset="1" style="stop-color:#5C6BC0"/>
						</linearGradient>
						
							<path style="fill:none;stroke:url(#SVGID_00000010309519168309374780000009293589888185722759_);stroke-width:2;stroke-miterlimit:10;" d="
							M387.641,374.303h-25.282c-1.783,0-3.228-1.445-3.228-3.228v-51.693c0-1.783,1.445-3.228,3.228-3.228h25.282
							c1.783,0,3.228,1.445,3.228,3.228v51.693C390.87,372.858,389.424,374.303,387.641,374.303z"/>
					</g>
					<g>
						<g>
							<path style="fill:#FFFFFF;" d="M379.357,357.485c0,1.203-0.488,2.293-1.276,3.081c-0.788,0.789-1.878,1.276-3.081,1.276
								c-1.203,0-2.293-0.488-3.081-1.276c-0.789-0.788-1.276-1.878-1.276-3.081s0.488-2.293,1.276-3.081
								c0.788-0.789,1.878-1.276,3.081-1.276c1.203,0,2.293,0.488,3.081,1.276C378.87,355.192,379.357,356.281,379.357,357.485z"/>
						</g>
						<g>
							<path style="fill:#FFFFFF;" d="M386.469,351.704c-0.341,0-0.681-0.13-0.941-0.39c-1.368-1.367-2.96-2.441-4.733-3.191
								c-3.671-1.552-7.918-1.552-11.59,0c-1.772,0.75-3.365,1.824-4.732,3.191c-0.52,0.52-1.362,0.52-1.882,0
								c-0.52-0.52-0.52-1.362,0-1.882c1.611-1.611,3.488-2.876,5.578-3.761c4.334-1.831,9.335-1.831,13.663,0
								c2.09,0.884,3.967,2.149,5.578,3.761c0.52,0.52,0.52,1.362,0,1.882C387.15,351.574,386.809,351.704,386.469,351.704z"/>
						</g>
						<g>
							<path style="fill:#FFFFFF;" d="M357.712,345.885c-0.341,0-0.681-0.13-0.941-0.39c-0.52-0.519-0.52-1.362,0-1.882
								c2.366-2.366,5.123-4.225,8.194-5.524c6.359-2.689,13.716-2.689,20.071,0c3.071,1.299,5.828,3.157,8.195,5.524
								c0.52,0.52,0.52,1.362,0,1.882c-0.52,0.52-1.362,0.52-1.882,0c-2.123-2.123-4.596-3.79-7.35-4.955
								c-5.696-2.41-12.299-2.41-17.996,0c-2.754,1.165-5.226,2.832-7.349,4.955C358.393,345.755,358.052,345.885,357.712,345.885z"
								/>
						</g>
						<g>
							<path style="fill:#FFFFFF;" d="M351.891,340.065c-0.341,0-0.681-0.13-0.941-0.39c-0.52-0.52-0.52-1.363,0-1.882
								c3.124-3.124,6.761-5.576,10.811-7.288c4.193-1.774,8.648-2.674,13.239-2.674c4.591,0,9.045,0.9,13.24,2.674
								c4.05,1.713,7.687,4.165,10.81,7.288c0.52,0.52,0.52,1.362,0,1.882c-0.52,0.52-1.362,0.52-1.882,0
								c-2.879-2.879-6.232-5.14-9.965-6.719c-7.728-3.269-16.678-3.269-24.404,0c-3.732,1.578-7.085,3.839-9.966,6.719
								C352.573,339.935,352.232,340.065,351.891,340.065z"/>
						</g>
					</g>
				</g>
			</g>
			<g>
				
					<linearGradient id="SVGID_00000129167113630523673900000002789967625597812642_" gradientUnits="userSpaceOnUse" x1="217.581" y1="383.6691" x2="294.4621" y2="306.788">
					<stop  offset="0" style="stop-color:#3949AB"/>
					<stop  offset="1" style="stop-color:#5C6BC0"/>
				</linearGradient>
				<circle style="fill:url(#SVGID_00000129167113630523673900000002789967625597812642_);" cx="256.022" cy="345.229" r="54.363"/>
				<g>
					<g>
						
							<linearGradient id="SVGID_00000168839134058271071650000015055678840826598074_" gradientUnits="userSpaceOnUse" x1="224.2018" y1="377.0483" x2="287.8414" y2="313.4087">
							<stop  offset="0" style="stop-color:#C5CAE9"/>
							<stop  offset="0.2282" style="stop-color:#D1D5ED"/>
							<stop  offset="0.6717" style="stop-color:#E2E4F4"/>
							<stop  offset="1" style="stop-color:#E8EAF6"/>
						</linearGradient>
						<path style="fill:url(#SVGID_00000168839134058271071650000015055678840826598074_);" d="M256.021,300.228
							c-24.853,0-45,20.147-45,45c0,24.853,20.147,45,45,45c24.853,0,45-20.147,45-45
							C301.022,320.376,280.874,300.228,256.021,300.228z"/>
					</g>
				</g>
				<g>
					<g>
						<g>
							<g>
								<g>
									
										<linearGradient id="SVGID_00000080202356433655242830000002000277548867581885_" gradientUnits="userSpaceOnUse" x1="256.0216" y1="364.8921" x2="256.0216" y2="329.9725">
										<stop  offset="0" style="stop-color:#3949AB"/>
										<stop  offset="1" style="stop-color:#5C6BC0"/>
									</linearGradient>
									<path style="fill:url(#SVGID_00000080202356433655242830000002000277548867581885_);" d="M282.957,361.205v-29.291
										c0-1.072-0.869-1.941-1.941-1.941h-49.988c-1.072,0-1.941,0.869-1.941,1.941v29.291h-2.564
										c0,2.036,1.651,3.688,3.688,3.688h51.625c2.036,0,3.688-1.651,3.688-3.688H282.957z"/>
									
										<linearGradient id="SVGID_00000010296407975124692700000008068944735031234181_" gradientUnits="userSpaceOnUse" x1="256.0216" y1="359.5773" x2="256.0216" y2="332.3521">
										<stop  offset="0" style="stop-color:#C5CAE9"/>
										<stop  offset="0.2282" style="stop-color:#D1D5ED"/>
										<stop  offset="0.6717" style="stop-color:#E2E4F4"/>
										<stop  offset="1" style="stop-color:#E8EAF6"/>
									</linearGradient>
									<path style="fill:url(#SVGID_00000010296407975124692700000008068944735031234181_);" d="M280.682,359.577h-49.321v-26.211
										c0-0.56,0.454-1.014,1.014-1.014h47.293c0.56,0,1.014,0.454,1.014,1.014V359.577z"/>
								</g>
							</g>
						</g>
					</g>
					<g>
						
							<linearGradient id="SVGID_00000183942108211206888990000011766615044413971076_" gradientUnits="userSpaceOnUse" x1="245.2061" y1="353.9602" x2="245.2061" y2="325.4593">
							<stop  offset="0" style="stop-color:#FFC46E"/>
							<stop  offset="1" style="stop-color:#FF9100"/>
						</linearGradient>
						<polygon style="fill:url(#SVGID_00000183942108211206888990000011766615044413971076_);" points="245.206,349.994 
							255.966,335.116 250.441,335.116 250.441,325.565 239.971,325.565 239.971,335.116 234.447,335.116 						"/>
						
							<linearGradient id="SVGID_00000155108187760368708990000014899026559031400630_" gradientUnits="userSpaceOnUse" x1="274.547" y1="335.0051" x2="274.547" y2="306.5042" gradientTransform="matrix(-1 0 0 -1 541.384 656.6034)">
							<stop  offset="0" style="stop-color:#FF3EFF"/>
							<stop  offset="1" style="stop-color:#C445C0"/>
						</linearGradient>
						<polygon style="fill:url(#SVGID_00000155108187760368708990000014899026559031400630_);" points="266.837,325.565 
							256.077,340.443 261.602,340.443 261.602,349.994 272.072,349.994 272.072,340.443 277.597,340.443 						"/>
					</g>
				</g>
			</g>
			<g>
				
					<linearGradient id="SVGID_00000023962520552350133460000016409214603525618106_" gradientUnits="userSpaceOnUse" x1="98.6025" y1="383.6691" x2="175.4836" y2="306.788">
					<stop  offset="0" style="stop-color:#3949AB"/>
					<stop  offset="1" style="stop-color:#5C6BC0"/>
				</linearGradient>
				<circle style="fill:url(#SVGID_00000023962520552350133460000016409214603525618106_);" cx="137.043" cy="345.229" r="54.363"/>
				<g>
					<g>
						
							<linearGradient id="SVGID_00000096745626817782762450000012307531614213272473_" gradientUnits="userSpaceOnUse" x1="105.2233" y1="377.0483" x2="168.8629" y2="313.4087">
							<stop  offset="0" style="stop-color:#C5CAE9"/>
							<stop  offset="0.2282" style="stop-color:#D1D5ED"/>
							<stop  offset="0.6717" style="stop-color:#E2E4F4"/>
							<stop  offset="1" style="stop-color:#E8EAF6"/>
						</linearGradient>
						<path style="fill:url(#SVGID_00000096745626817782762450000012307531614213272473_);" d="M137.043,300.228
							c-24.853,0-45,20.147-45,45c0,24.853,20.147,45,45,45s45-20.147,45-45C182.043,320.376,161.896,300.228,137.043,300.228z"/>
					</g>
				</g>
				<g>
					<g>
						
							<linearGradient id="SVGID_00000139288792977558643310000010503882854140091798_" gradientUnits="userSpaceOnUse" x1="137.0431" y1="368.4797" x2="137.0431" y2="327.5253">
							<stop  offset="0" style="stop-color:#FF3EFF"/>
							<stop  offset="1" style="stop-color:#C445C0"/>
						</linearGradient>
						<path style="fill:url(#SVGID_00000139288792977558643310000010503882854140091798_);" d="M161.751,362.78h-49.416
							c-1.266,0-2.292-1.026-2.292-2.292v-30.519c0-1.266,1.026-2.292,2.292-2.292h49.416c1.266,0,2.292,1.026,2.292,2.292v30.519
							C164.043,361.754,163.017,362.78,161.751,362.78z"/>
						<path style="fill:#242B5B;" d="M164.043,335.188h-54v-5.219c0-1.266,1.026-2.292,2.292-2.292h49.416
							c1.266,0,2.292,1.026,2.292,2.292V335.188z"/>
						<g>
							<path style="fill:#FFFFFF;" d="M117.236,331.432c0,0.862-0.699,1.56-1.56,1.56s-1.56-0.699-1.56-1.56
								c0-0.862,0.699-1.56,1.56-1.56S117.236,330.571,117.236,331.432z"/>
							<path style="fill:#FFFFFF;" d="M123.217,331.432c0,0.862-0.699,1.56-1.56,1.56c-0.862,0-1.56-0.699-1.56-1.56
								c0-0.862,0.699-1.56,1.56-1.56C122.518,329.872,123.217,330.571,123.217,331.432z"/>
							<path style="fill:#FFFFFF;" d="M129.198,331.432c0,0.862-0.699,1.56-1.56,1.56c-0.862,0-1.56-0.699-1.56-1.56
								c0-0.862,0.699-1.56,1.56-1.56C128.499,329.872,129.198,330.571,129.198,331.432z"/>
						</g>
					</g>
					<g>
						<path style="opacity:0.41;fill:#FFFFFF;" d="M142.326,343.845h-28.121c-0.636,0-1.152-0.516-1.152-1.152l0,0
							c0-0.636,0.516-1.152,1.152-1.152h28.121c0.636,0,1.152,0.516,1.152,1.152l0,0
							C143.478,343.329,142.962,343.845,142.326,343.845z"/>
						<path style="opacity:0.41;fill:#FFFFFF;" d="M159.881,348.478H131.76c-0.636,0-1.152-0.516-1.152-1.152l0,0
							c0-0.636,0.516-1.152,1.152-1.152h28.121c0.636,0,1.152,0.516,1.152,1.152l0,0
							C161.033,347.962,160.517,348.478,159.881,348.478z"/>
					</g>
				</g>
			</g>
		</g>
		<g>
			
				<linearGradient id="SVGID_00000031928263000181878350000002079925538799073205_" gradientUnits="userSpaceOnUse" x1="157.8865" y1="130.5169" x2="592.1135" y2="130.5169">
				<stop  offset="0" style="stop-color:#E8EAF6"/>
				<stop  offset="1" style="stop-color:#FFFFFF"/>
			</linearGradient>
			<path style="fill:url(#SVGID_00000031928263000181878350000002079925538799073205_);" d="M543.07,156.692
				c0.252-2.111,0.391-4.339,0.391-6.712c0-35.3-28.616-63.916-63.916-63.916c-9.691,0-18.872,2.168-27.102,6.028
				c-15.146-23.355-41.427-38.818-71.336-38.818c-37.157,0-68.723,23.855-80.273,57.078c-8.505-5.417-18.593-8.569-29.424-8.569
				c-30.297,0-54.858,24.561-54.858,54.858c0,0.188,0.012,0.373,0.014,0.56c-2.467-0.366-4.99-0.56-7.559-0.56
				c-28.233,0-51.121,22.888-51.121,51.121h434.227C592.113,180.224,570.339,157.784,543.07,156.692z"/>
			<g>
				<path style="fill:#FFFFFF;" d="M217.976,158.882c2.569,0,5.092,0.195,7.559,0.56c-0.002-0.188-0.014-0.372-0.014-0.56
					c0-30.297,24.561-54.858,54.858-54.858c2.995,0,5.93,0.249,8.794,0.713c-5.57-1.911-11.543-2.955-17.762-2.955
					c-30.297,0-54.858,24.561-54.858,54.858c0,0.188,0.012,0.373,0.014,0.56c-2.467-0.366-4.99-0.56-7.559-0.56
					c-28.233,0-51.121,22.888-51.121,51.121h9.025C168.086,180.569,190.494,158.882,217.976,158.882z"/>
				<path style="fill:#FFFFFF;" d="M309.802,112.592c11.55-33.223,43.116-57.078,80.273-57.078c5.504,0,10.883,0.528,16.095,1.528
					c-7.922-2.445-16.336-3.77-25.063-3.77c-36.383,0-67.393,22.878-79.513,55.021C304.462,109.5,307.207,110.939,309.802,112.592z"
					/>
			</g>
		</g>
	</g>
</g>
<g id="TEXTS">
	<g>
		<g>
			<g>
				<g>
					
						<text transform="matrix(1 0 0 1 96.9019 448.5635)" style="fill:#7986CB; font-family:'Montserrat-ExtraBold'; font-size:15.5104px;">web app</text>
				</g>
			</g>
			<g>
				<g>
					
						<text transform="matrix(1 0 0 1 209.5913 448.5635)" style="fill:#7986CB; font-family:'Montserrat-ExtraBold'; font-size:15.5104px;">exchange</text>
				</g>
			</g>
			<g>
				<g>
					
						<text transform="matrix(1 0 0 1 333.856 448.5635)" style="fill:#7986CB; font-family:'Montserrat-ExtraBold'; font-size:15.5104px;">internet</text>
				</g>
			</g>
			<g>
				<g>
					
						<text transform="matrix(1 0 0 1 438.5039 448.5635)" style="fill:#7986CB; font-family:'Montserrat-ExtraBold'; font-size:15.5104px;">web server</text>
				</g>
			</g>
			<g>
				<g>
					
						<text transform="matrix(1 0 0 1 567.1465 448.5635)" style="fill:#7986CB; font-family:'Montserrat-ExtraBold'; font-size:15.5104px;">database</text>
				</g>
			</g>
		</g>
		<g>
			
				<text transform="matrix(1 0 0 1 291.0795 187.6884)" style="fill:#7986CB; font-family:'Montserrat-ExtraBold'; font-size:82px;">api</text>
		</g>
	</g>
</g>
</svg>
